<?xml version="1.0" encoding="UTF-8"?>
<svg id="Layer_1" xmlns="http://www.w3.org/2000/svg" version="1.1" viewBox="0 0 1200 1200">
  <!-- Generator: Adobe Illustrator 29.1.0, SVG Export Plug-In . SVG Version: 2.1.0 Build 142)  -->
  <defs>
    <style>
      .st0 {
        fill: #fff;
      }
    </style>
  </defs>
  <rect x="-11.93" y="-11.93" width="1223.85" height="1223.85"/>
  <path class="st0" d="M832.14,567.6l-29.29-61.34-57.43-61.07-34.73-64.24-40.8-21.62-28.01-48.6-33.6,4.52-30.11-4.52-72.11,55.04-20.68,62.07-49.82,43.08-28.44,17.24-34.78,62.03-.23,7.24,146.12-135.26,12.45,88.44,157.75,11.65-225.6,45.33h369.32ZM537.49,502.73v-82.04h152.13v82.04h-152.13Z"/>
  <g>
    <path class="st0" d="M200.83,808.32h-23.86v-151.53h23.86v14.99c8.18-10.91,20.9-17.72,35.21-17.72,28.4,0,48.62,21.36,48.62,57.48s-20.22,57.71-48.62,57.71c-13.86,0-26.35-6.13-35.21-17.95v57.02ZM229,675.19c-11.13,0-22.95,6.59-28.17,14.77v43.39c5.22,7.95,17.04,14.77,28.17,14.77,18.86,0,30.9-15.22,30.9-36.58s-12.04-36.35-30.9-36.35Z"/>
    <path class="st0" d="M313.52,741.07v-63.38h-18.17v-20.9h18.17v-29.99h23.85v29.99h22.26v20.9h-22.26v57.48c0,7.5,3.63,12.95,10.45,12.95,4.54,0,8.86-1.82,10.68-3.86l5.68,17.95c-4.32,4.09-11.36,7.04-22.49,7.04-18.4,0-28.17-10-28.17-28.17Z"/>
    <path class="st0" d="M438.24,734.94c7.72,7.95,22.95,15.45,37.26,15.45s21.58-5.23,21.58-13.4c0-9.54-11.59-12.95-24.99-15.9-18.86-4.09-41.35-9.09-41.35-33.62,0-17.95,15.45-33.4,43.17-33.4,18.63,0,32.71,6.59,42.71,15.45l-10,16.81c-6.59-7.5-18.86-13.18-32.49-13.18-12.5,0-20.45,4.54-20.45,12.27,0,8.41,10.9,11.36,23.85,14.31,19.08,4.09,42.48,9.54,42.48,35.44,0,19.31-16.13,34.08-45.67,34.08-18.63,0-35.67-5.91-47.03-17.04l10.91-17.27Z"/>
    <path class="st0" d="M618.4,766.52v-69.07c0-17.04-8.86-22.26-22.26-22.26-12.04,0-22.49,7.27-28.17,14.77v76.56h-23.86v-151.53h23.86v56.8c7.27-8.63,21.58-17.72,38.85-17.72,23.63,0,35.44,12.27,35.44,34.76v77.7h-23.85Z"/>
    <path class="st0" d="M666.34,711.54c0-31.35,21.58-57.48,56.34-57.48s56.57,26.13,56.57,57.48-21.36,57.71-56.57,57.71-56.34-26.13-56.34-57.71ZM754.49,711.54c0-19.31-11.36-36.35-31.81-36.35s-31.58,17.04-31.58,36.35,11.36,36.58,31.58,36.58,31.81-17.04,31.81-36.58Z"/>
    <path class="st0" d="M795.39,766.52v-109.73h23.85v16.13c8.18-10.45,21.36-18.63,35.67-18.63v23.63c-2.04-.45-4.54-.68-7.5-.68-10,0-23.4,6.82-28.17,14.54v74.75h-23.85Z"/>
    <path class="st0" d="M878.99,741.07v-63.38h-18.17v-20.9h18.17v-29.99h23.85v29.99h22.26v20.9h-22.26v57.48c0,7.5,3.64,12.95,10.45,12.95,4.54,0,8.86-1.82,10.68-3.86l5.68,17.95c-4.32,4.09-11.36,7.04-22.49,7.04-18.4,0-28.17-10-28.17-28.17Z"/>
    <path class="st0" d="M948.05,734.94c7.72,7.95,22.95,15.45,37.26,15.45s21.58-5.23,21.58-13.4c0-9.54-11.59-12.95-24.99-15.9-18.86-4.09-41.35-9.09-41.35-33.62,0-17.95,15.45-33.4,43.17-33.4,18.63,0,32.71,6.59,42.71,15.45l-10,16.81c-6.59-7.5-18.86-13.18-32.49-13.18-12.5,0-20.45,4.54-20.45,12.27,0,8.41,10.91,11.36,23.85,14.31,19.08,4.09,42.48,9.54,42.48,35.44,0,19.31-16.13,34.08-45.67,34.08-18.63,0-35.67-5.91-47.03-17.04l10.9-17.27Z"/>
  </g>
  <g>
    <path class="st0" d="M311.09,868.38v-39.22h17.23c8.23,0,12.82,5.65,12.82,12.29s-4.65,12.29-12.82,12.29h-10.35v14.64h-6.88ZM327.38,835.22h-9.41v12.47h9.41c3.88,0,6.7-2.47,6.7-6.23s-2.82-6.23-6.7-6.23Z"/>
    <path class="st0" d="M344.02,854.15c0-8.12,5.59-14.88,14.58-14.88s14.64,6.76,14.64,14.88-5.53,14.94-14.64,14.94-14.58-6.76-14.58-14.94ZM366.84,854.15c0-5-2.94-9.41-8.23-9.41s-8.17,4.41-8.17,9.41,2.94,9.47,8.17,9.47,8.23-4.41,8.23-9.47Z"/>
    <path class="st0" d="M380.72,861.8v-16.41h-4.7v-5.41h4.7v-7.76h6.17v7.76h5.76v5.41h-5.76v14.88c0,1.94.94,3.35,2.71,3.35,1.18,0,2.29-.47,2.76-1l1.47,4.65c-1.12,1.06-2.94,1.82-5.82,1.82-4.76,0-7.29-2.59-7.29-7.29Z"/>
    <path class="st0" d="M397.48,831.45c0-2.12,1.76-3.82,3.82-3.82s3.82,1.71,3.82,3.82-1.71,3.82-3.82,3.82-3.82-1.71-3.82-3.82ZM398.24,868.38v-28.4h6.17v28.4h-6.17Z"/>
    <path class="st0" d="M432.41,868.38v-3.88c-2.18,2.82-5.47,4.59-9.11,4.59-7.29,0-12.64-5.53-12.64-14.88s5.29-14.94,12.64-14.94c3.53,0,6.82,1.65,9.11,4.65v-14.76h6.17v39.22h-6.17ZM432.41,848.57c-1.41-2.12-4.41-3.82-7.35-3.82-4.88,0-8,3.94-8,9.47s3.12,9.41,8,9.41c2.94,0,5.94-1.65,7.35-3.76v-11.29Z"/>
    <path class="st0" d="M463.93,868.38v-3.06c-2.12,2.41-5.41,3.76-9.17,3.76-4.65,0-9.88-3.12-9.88-9.41s5.23-9.23,9.88-9.23c3.82,0,7.12,1.24,9.17,3.65v-4.23c0-3.29-2.71-5.29-6.65-5.29-3.18,0-5.94,1.18-8.41,3.59l-2.53-4.29c3.29-3.12,7.41-4.59,11.94-4.59,6.29,0,11.82,2.65,11.82,10.29v18.82h-6.17ZM463.93,857.62c-1.41-1.94-4.06-2.94-6.76-2.94-3.47,0-6.06,2-6.06,5.12s2.59,5.06,6.06,5.06c2.71,0,5.35-1,6.76-2.94v-4.29Z"/>
    <path class="st0" d="M497.28,868.38v-17.76c0-4.41-2.23-5.88-5.7-5.88-3.18,0-5.88,1.88-7.29,3.82v19.82h-6.17v-28.4h6.17v3.88c1.88-2.24,5.53-4.59,10-4.59,6.12,0,9.17,3.29,9.17,9.12v19.99h-6.17Z"/>
    <path class="st0" d="M510.69,831.45c0-2.12,1.76-3.82,3.82-3.82s3.82,1.71,3.82,3.82-1.71,3.82-3.82,3.82-3.82-1.71-3.82-3.82ZM511.45,868.38v-28.4h6.17v28.4h-6.17Z"/>
    <path class="st0" d="M542.98,868.38v-3.06c-2.12,2.41-5.41,3.76-9.17,3.76-4.65,0-9.88-3.12-9.88-9.41s5.23-9.23,9.88-9.23c3.82,0,7.12,1.24,9.17,3.65v-4.23c0-3.29-2.71-5.29-6.65-5.29-3.18,0-5.94,1.18-8.41,3.59l-2.53-4.29c3.29-3.12,7.41-4.59,11.94-4.59,6.29,0,11.82,2.65,11.82,10.29v18.82h-6.17ZM542.98,857.62c-1.41-1.94-4.06-2.94-6.76-2.94-3.47,0-6.06,2-6.06,5.12s2.59,5.06,6.06,5.06c2.71,0,5.35-1,6.76-2.94v-4.29Z"/>
    <path class="st0" d="M572.44,868.38v-39.22h26.88v6.06h-19.99v10.17h19.58v6.06h-19.58v16.94h-6.88Z"/>
    <path class="st0" d="M604.55,831.45c0-2.12,1.76-3.82,3.82-3.82s3.82,1.71,3.82,3.82-1.71,3.82-3.82,3.82-3.82-1.71-3.82-3.82ZM605.32,868.38v-28.4h6.17v28.4h-6.17Z"/>
    <path class="st0" d="M619.49,868.38v-39.22h6.17v39.22h-6.17Z"/>
    <path class="st0" d="M668.48,868.38v-18.52c0-3.06-1.35-5.12-4.65-5.12-2.76,0-5.35,1.94-6.59,3.76v19.88h-6.17v-18.52c0-3.06-1.35-5.12-4.71-5.12-2.71,0-5.23,1.94-6.53,3.82v19.82h-6.17v-28.4h6.17v3.88c1.18-1.76,4.94-4.59,9.23-4.59s6.82,2.12,7.76,5.23c1.65-2.59,5.41-5.23,9.64-5.23,5.23,0,8.17,2.82,8.17,8.59v20.52h-6.17Z"/>
    <path class="st0" d="M697.94,868.38v-39.22h26.87v6.06h-19.99v10.17h19.58v6.06h-19.58v16.94h-6.88Z"/>
    <path class="st0" d="M743.46,839.28c8.53,0,14,6.53,14,15.47v1.47h-21.94c.47,4.29,3.71,7.82,9.06,7.82,2.76,0,6.06-1.12,8.06-3.12l2.82,4.06c-2.82,2.71-7,4.12-11.53,4.12-8.53,0-14.88-5.94-14.88-14.94,0-8.23,6-14.88,14.41-14.88ZM735.46,851.86h16c-.12-3.35-2.41-7.53-8-7.53-5.29,0-7.7,4.06-8,7.53Z"/>
    <path class="st0" d="M763.93,860.21c2,2.06,5.94,4,9.64,4s5.59-1.35,5.59-3.47c0-2.47-3-3.35-6.47-4.12-4.88-1.06-10.7-2.35-10.7-8.7,0-4.65,4-8.64,11.17-8.64,4.82,0,8.47,1.71,11.06,4l-2.59,4.35c-1.71-1.94-4.88-3.41-8.41-3.41-3.23,0-5.29,1.18-5.29,3.18,0,2.18,2.82,2.94,6.17,3.71,4.94,1.06,11,2.47,11,9.17,0,5-4.18,8.82-11.82,8.82-4.82,0-9.23-1.53-12.17-4.41l2.82-4.47Z"/>
    <path class="st0" d="M792.57,861.8v-16.41h-4.7v-5.41h4.7v-7.76h6.17v7.76h5.76v5.41h-5.76v14.88c0,1.94.94,3.35,2.71,3.35,1.18,0,2.29-.47,2.76-1l1.47,4.65c-1.12,1.06-2.94,1.82-5.82,1.82-4.76,0-7.29-2.59-7.29-7.29Z"/>
    <path class="st0" d="M809.33,831.45c0-2.12,1.76-3.82,3.82-3.82s3.82,1.71,3.82,3.82-1.71,3.82-3.82,3.82-3.82-1.71-3.82-3.82ZM810.09,868.38v-28.4h6.17v28.4h-6.17Z"/>
    <path class="st0" d="M831.73,868.38l-11.58-28.4h6.59l8.29,21.29,8.29-21.29h6.64l-11.58,28.4h-6.64Z"/>
    <path class="st0" d="M871.19,868.38v-3.06c-2.12,2.41-5.41,3.76-9.17,3.76-4.65,0-9.88-3.12-9.88-9.41s5.23-9.23,9.88-9.23c3.82,0,7.12,1.24,9.17,3.65v-4.23c0-3.29-2.71-5.29-6.64-5.29-3.18,0-5.94,1.18-8.41,3.59l-2.53-4.29c3.29-3.12,7.41-4.59,11.94-4.59,6.29,0,11.82,2.65,11.82,10.29v18.82h-6.17ZM871.19,857.62c-1.41-1.94-4.06-2.94-6.76-2.94-3.47,0-6.06,2-6.06,5.12s2.59,5.06,6.06,5.06c2.71,0,5.35-1,6.76-2.94v-4.29Z"/>
    <path class="st0" d="M885.37,868.38v-39.22h6.17v39.22h-6.17Z"/>
  </g>
  <path class="st0" d="M393.86,703.51c8.63,0,15.9,7.27,15.9,15.9s-7.27,15.9-15.9,15.9-15.9-7.27-15.9-15.9,7.27-15.9,15.9-15.9Z"/>
</svg>